# xmcd
#
# Track frame offsets: 
#        150
#        25408
#        47838
#        69223
#        90232
#        108217
#        131190
#
# Disc length: 1969 seconds
#
# Revision: 0
# Processed by: cddbd v1.5.2PL0 Copyright (c) Steve Scherf et al.
# Submitted via: ExactAudioCopy v0.95b4
#
DISCID=5307af07
DTITLE=Sammy Fender - Transformating Love
DYEAR=2000
DGENRE=Blues
TTITLE0=Im a Dreamer
TTITLE1=Ticket to anywhere
TTITLE2=Transformating Love
TTITLE3=Chill´n
TTITLE4=Agony
TTITLE5=Ooowee Baby
TTITLE6=Turkey Legs
EXTD=
EXTT0=
EXTT1=
EXTT2=
EXTT3=
EXTT4=
EXTT5=
EXTT6=
PLAYORDER=
